<svg xmlns="http://www.w3.org/2000/svg" xmlns:xlink="http://www.w3.org/1999/xlink" width="50" height="31.585" viewBox="0 0 50 31.585">
  <defs>
    <clipPath id="clip-path">
      <rect id="Rectangle_119" data-name="Rectangle 119" width="50" height="31.585" fill="#FFF"/>
    </clipPath>
  </defs>
  <g id="Group_6" data-name="Group 6" style="isolation: isolate">
    <g id="Group_5" data-name="Group 5" clip-path="url(#clip-path)">
      <path id="Path_13" data-name="Path 13" d="M30.968,159.441l-1.552-.465c-.407-.117-.7-.33-.7-.679s.291-.485.854-.485a6.568,6.568,0,0,1,3.084.931l1.2-2.017a7.87,7.87,0,0,0-4.442-1.338c-2.541,0-4,1.338-4,3.22,0,2.017,1.668,2.754,3.22,3.123l1.2.291c.388.1.776.252.776.679,0,.388-.407.543-1.086.543a5.475,5.475,0,0,1-3.356-1.222l-1.28,2.017a7.344,7.344,0,0,0,4.888,1.707c2.716,0,4.171-1.28,4.171-3.22,0-2.017-1.552-2.657-2.987-3.084" transform="translate(-21.496 -134.161)" fill="#FFF"/>
      <path id="Path_14" data-name="Path 14" d="M108.905,133.054h-3.724l-2.638,3.356v-7.293H99.3v13.636h3.239v-3.976l2.91,3.976h3.8l-3.86-5.218Z" transform="translate(-85.738 -111.479)" fill="#FFF"/>
      <rect id="Rectangle_116" data-name="Rectangle 116" width="3.239" height="9.699" transform="translate(23.904 21.576)" fill="#FFF"/>
      <rect id="Rectangle_117" data-name="Rectangle 117" width="3.259" height="13.636" transform="translate(28.598 17.638)" fill="#FFF"/>
      <rect id="Rectangle_118" data-name="Rectangle 118" width="3.259" height="13.636" transform="translate(33.312 17.638)" fill="#FFF"/>
      <path id="Path_15" data-name="Path 15" d="M280.884,159.441l-1.552-.465c-.408-.117-.7-.33-.7-.679s.291-.485.854-.485a6.568,6.568,0,0,1,3.084.931l1.2-2.017a7.87,7.87,0,0,0-4.442-1.338c-2.541,0-4,1.338-4,3.22,0,2.017,1.668,2.754,3.22,3.123l1.2.291c.388.1.776.252.776.679,0,.388-.407.543-1.086.543a5.474,5.474,0,0,1-3.356-1.222l-1.28,2.017a7.344,7.344,0,0,0,4.888,1.707c2.716,0,4.17-1.28,4.17-3.22,0-2.017-1.552-2.657-2.987-3.084" transform="translate(-237.272 -134.161)" fill="#FFF"/>
      <path id="Path_16" data-name="Path 16" d="M4.927,47.8A4.909,4.909,0,0,1,1.92,46.641L.485,48.852a7.221,7.221,0,0,0,4.772,1.707c2.735,0,5-1.474,5-5.412v-3.7a4.962,4.962,0,0,0-5.14-5.237A4.945,4.945,0,0,0,0,41.248a4.557,4.557,0,0,0,4.558,4.811A3.459,3.459,0,0,0,7.2,45.012v.407A2.076,2.076,0,0,1,4.927,47.8m.213-4.6a1.94,1.94,0,1,1,0-3.879,1.94,1.94,0,0,1,0,3.879" transform="translate(0 -31.259)" fill="#FFF"/>
      <path id="Path_17" data-name="Path 17" d="M86.9,43.015c0-.8.349-1.144,1.144-1.144h1.707V38.9H87.42a3.442,3.442,0,0,0-3.782,3.783V48.6H86.9Z" transform="translate(-72.213 -33.589)" fill="#FFF"/>
      <path id="Path_18" data-name="Path 18" d="M269.483,38.9v5.373c0,.97-.466,1.533-1.28,1.533-.834,0-1.3-.563-1.3-1.533V38.9H263.78v5.373c0,.97-.465,1.533-1.28,1.533-.834,0-1.3-.563-1.3-1.533V38.9h-3.239v5.819c0,3.317,2.328,4.229,3.918,4.229a4.925,4.925,0,0,0,3.472-1.474,4.842,4.842,0,0,0,3.453,1.474c1.591,0,3.918-.912,3.918-4.229V38.9Z" transform="translate(-222.723 -33.59)" fill="#FFF"/>
      <path id="Path_19" data-name="Path 19" d="M153.986,4.728a4.884,4.884,0,0,1,0,6.9l2.335,2.335A8.182,8.182,0,0,0,144.751,2.393l2.336,2.335a4.884,4.884,0,0,1,6.9,0" transform="translate(-124.977 0)" fill="#FFF"/>
      <path id="Path_20" data-name="Path 20" d="M147.361,89.891v3.3a8.191,8.191,0,0,0,8.182-8.182h-3.3a4.884,4.884,0,0,1-4.879,4.879" transform="translate(-127.231 -73.399)" fill="#FFF"/>
      <path id="Path_21" data-name="Path 21" d="M132.995,43.06a4.885,4.885,0,0,1,3.656-5.851l-.743-3.218a8.191,8.191,0,0,0-6.131,9.813Z" transform="translate(-111.867 -29.347)" fill="#FFF"/>
    </g>
  </g>
</svg>
