<?xml version="1.0" encoding="utf-8"?>
<!-- Generator: Adobe Illustrator 28.2.0, SVG Export Plug-In . SVG Version: 6.00 Build 0)  -->
<svg version="1.1" id="Laag_1" xmlns="http://www.w3.org/2000/svg" xmlns:xlink="http://www.w3.org/1999/xlink" x="0px" y="0px"
	 viewBox="0 0 23 16" style="enable-background:new 0 0 23 16;" xml:space="preserve">
<style type="text/css">
	.st0{fill:#49D8FE;}
</style>
<g>
	<path class="st0" d="M10.4,0.1C10.1-0.1,9.7,0,9.4,0.2L4.6,4H1C0.4,4,0,4.4,0,5v6c0,0.6,0.4,1,1,1h3.6l4.7,3.8
		C9.6,15.9,9.8,16,10,16c0.1,0,0.3,0,0.4-0.1c0.3-0.2,0.6-0.5,0.6-0.9V1C11,0.6,10.8,0.3,10.4,0.1z M9,12.9l-3.4-2.7
		C5.4,10.1,5.2,10,5,10H2V6h3c0.2,0,0.4-0.1,0.6-0.2L9,3.1V12.9z"/>
	<path class="st0" d="M14.5,3.8c-0.4,0.4-0.4,1,0,1.4c1.6,1.5,1.6,4.1,0,5.6c-0.4,0.4-0.4,1,0,1.4c0.2,0.2,0.5,0.3,0.7,0.3
		s0.5-0.1,0.7-0.3c2.4-2.3,2.4-6.1,0-8.4C15.5,3.4,14.9,3.4,14.5,3.8z"/>
	<path class="st0" d="M19.6,0.3c-0.4-0.4-1.1-0.4-1.5,0c-0.4,0.4-0.4,1,0,1.4c3.7,3.5,3.7,9.1,0,12.6c-0.4,0.4-0.4,1,0,1.4
		c0.2,0.2,0.5,0.3,0.7,0.3s0.5-0.1,0.7-0.3C24.1,11.5,24.1,4.5,19.6,0.3z"/>
</g>
</svg>
