<?xml version="1.0" encoding="utf-8"?>
<!-- Generator: Adobe Illustrator 28.2.0, SVG Export Plug-In . SVG Version: 6.00 Build 0)  -->
<svg version="1.1" id="Laag_1" xmlns="http://www.w3.org/2000/svg" xmlns:xlink="http://www.w3.org/1999/xlink" x="0px" y="0px"
	 viewBox="0 0 23 16" style="enable-background:new 0 0 23 16;" xml:space="preserve">
<style type="text/css">
	.st0{fill:#49D8FE;}
</style>
<g>
	<path class="st0" d="M10.4,0.1C10.1-0.1,9.7,0,9.4,0.2L4.6,4H1C0.4,4,0,4.4,0,5v6c0,0.6,0.4,1,1,1h3.6l4.7,3.8
		C9.6,15.9,9.8,16,10,16c0.1,0,0.3,0,0.4-0.1c0.3-0.2,0.6-0.5,0.6-0.9V1C11,0.6,10.8,0.3,10.4,0.1z M9,12.9l-3.4-2.7
		C5.4,10.1,5.2,10,5,10H2V6h3c0.2,0,0.4-0.1,0.6-0.2L9,3.1V12.9z"/>
	<path class="st0" d="M20.4,8l2.3-2.3c0.4-0.4,0.4-1,0-1.4c-0.4-0.4-1-0.4-1.4,0L19,6.6l-2.3-2.3c-0.4-0.4-1-0.4-1.4,0
		c-0.4,0.4-0.4,1,0,1.4L17.6,8l-2.3,2.3c-0.4,0.4-0.4,1,0,1.4c0.2,0.2,0.5,0.3,0.7,0.3s0.5-0.1,0.7-0.3L19,9.4l2.3,2.3
		c0.2,0.2,0.5,0.3,0.7,0.3s0.5-0.1,0.7-0.3c0.4-0.4,0.4-1,0-1.4L20.4,8z"/>
</g>
</svg>
