<?xml version="1.0" encoding="utf-8"?>
<!-- Generator: Adobe Illustrator 28.3.0, SVG Export Plug-In . SVG Version: 6.00 Build 0)  -->
<svg version="1.1" id="Laag_1" xmlns="http://www.w3.org/2000/svg" xmlns:xlink="http://www.w3.org/1999/xlink" x="0px" y="0px"
	 viewBox="0 0 30 30" style="enable-background:new 0 0 30 30;" xml:space="preserve">
<style type="text/css">
	.st0{fill-rule:evenodd;clip-rule:evenodd;fill:#FFFFFF;}
</style>
<g id="Group_200" transform="translate(-1012 -2134)">
	<path id="Path_575" class="st0" d="M1037.7,2138.3c-5.9-5.8-15.3-5.8-21.1,0c-4.7,4.8-5.7,12.1-2.4,18l-2.1,7.7l7.9-2.1
		c2.2,1.2,4.6,1.8,7.1,1.8l0,0c8.3,0,15-6.7,15-14.9C1042,2145,1040.5,2141.1,1037.7,2138.3 M1027.1,2161.3L1027.1,2161.3
		c-2.2,0-4.4-0.6-6.4-1.7l-0.5-0.3l-4.7,1.2l1.3-4.6l-0.3-0.5c-3.7-5.8-1.9-13.5,4-17.1c5.8-3.7,13.5-1.9,17.2,3.9
		c3.7,5.8,1.9,13.5-4,17.1C1031.8,2160.6,1029.5,2161.3,1027.1,2161.3 M1033.9,2152c-0.4-0.2-2.2-1.1-2.5-1.2
		c-0.4-0.1-0.6-0.2-0.9,0.2s-1,1.3-1.2,1.4c-0.2,0.2-0.5,0.3-0.8,0.1c-1.1-0.5-2.1-1.1-3-1.8c-0.8-0.8-1.5-1.6-2.1-2.6
		c-0.2-0.4,0-0.6,0.2-0.8c0.2-0.2,0.4-0.5,0.6-0.7c0.2-0.2,0.3-0.4,0.4-0.6s0.1-0.5,0-0.7c-0.1-0.2-0.9-2-1.2-2.8
		c-0.3-0.8-0.6-0.6-0.9-0.7c-0.2,0-0.5,0-0.7,0c-0.4,0-0.8,0.2-1,0.5c-0.9,0.8-1.4,1.9-1.4,3.1c0.1,1.4,0.7,2.8,1.5,3.8
		c0.2,0.3,2.6,4,6.4,5.6c0.7,0.3,1.4,0.6,2.1,0.8c0.8,0.2,1.5,0.3,2.3,0.2c1.1-0.2,1.9-0.9,2.5-1.7c0.3-0.6,0.3-1.2,0.2-1.7
		C1034.6,2152.3,1034.3,2152.2,1033.9,2152"/>
</g>
</svg>
